<?xml version="1.0" standalone="no"?>
<!DOCTYPE svg PUBLIC "-//W3C//DTD SVG 20010904//EN"
 "http://www.w3.org/TR/2001/REC-SVG-20010904/DTD/svg10.dtd">
<svg version="1.0" xmlns="http://www.w3.org/2000/svg"
 width="276.000000pt" height="276.000000pt" viewBox="0 0 276.000000 276.000000"
 preserveAspectRatio="xMidYMid meet">
<metadata>
Created by potrace 1.14, written by Peter Selinger 2001-2017
</metadata>
<g transform="translate(0.000000,276.000000) scale(0.100000,-0.100000)"
fill="#000000" stroke="none">
<path d="M1220 2283 c-52 -1 -232 -7 -399 -13 l-304 -10 -51 -38 c-28 -21 -94
-69 -146 -107 -172 -125 -240 -176 -240 -182 0 -3 113 -2 251 2 l252 7 -8 -67
c-4 -45 -3 -70 4 -74 7 -5 8 -18 1 -41 -15 -51 -12 -207 4 -267 8 -29 11 -55
8 -57 -4 -2 -29 -7 -56 -11 -32 -5 -44 -10 -35 -16 10 -6 6 -9 -12 -9 -19 0
-28 -6 -33 -22 -9 -35 -7 -92 5 -126 9 -25 17 -32 52 -37 l41 -7 -36 -15 c-42
-17 -48 -32 -48 -126 0 -58 14 -111 36 -136 4 -4 73 -18 159 -31 33 -5 85 -14
115 -19 30 -6 107 -19 170 -30 63 -11 194 -33 290 -50 449 -79 434 -78 555
-71 28 1 62 0 77 -3 39 -7 114 17 110 36 -4 22 116 48 198 43 45 -2 69 1 78
10 20 21 -18 36 -58 23 -17 -6 -34 -9 -37 -5 -3 3 -1 30 6 58 11 52 14 55 136
152 69 54 125 103 125 108 0 5 5 6 10 3 6 -3 10 -1 10 4 0 6 36 29 80 51 49
24 78 45 74 51 -5 8 -8 8 -13 0 -4 -6 -47 -32 -97 -58 -123 -64 -145 -78 -136
-88 4 -5 2 -5 -5 -1 -16 9 -116 -42 -108 -54 4 -6 -1 -7 -11 -3 -13 5 -15 3
-9 -7 5 -9 4 -11 -3 -6 -11 7 -72 -19 -72 -30 0 -3 5 -2 12 2 7 4 8 3 4 -5 -4
-6 -11 -9 -16 -6 -5 3 -32 -6 -60 -20 -28 -14 -56 -23 -62 -19 -7 5 -9 37 -5
99 l5 93 -36 0 c-51 1 -278 35 -582 88 -140 24 -316 54 -390 66 -74 12 -127
24 -118 26 10 2 86 -8 170 -22 146 -25 357 -59 573 -92 138 -21 129 -20 235
-39 52 -9 109 -17 125 -18 30 -2 128 37 303 119 51 24 95 44 97 44 2 0 47 20
99 45 53 25 101 45 108 45 6 0 9 3 5 6 -3 3 -36 10 -74 14 -63 8 -71 7 -112
-17 -24 -14 -41 -20 -37 -14 4 6 22 19 39 28 20 10 27 18 18 21 -7 2 -16 0
-20 -6 -3 -5 -64 -44 -136 -87 -71 -43 -136 -85 -143 -94 -10 -12 -17 -13 -30
-5 -54 35 -75 158 -48 295 26 130 40 155 97 174 27 9 54 13 60 9 7 -4 9 -3 6
3 -4 6 38 24 101 43 59 18 111 36 115 40 10 9 -60 13 -575 39 -185 9 -339 19
-341 21 -3 3 -8 20 -12 38 l-7 32 71 0 71 0 17 42 c9 24 44 98 78 165 l61 123
-251 -2 c-137 -1 -293 -3 -345 -5z m-327 -170 c-7 -2 -19 -2 -25 0 -7 3 -2 5
12 5 14 0 19 -2 13 -5z m603 -190 c4 -21 11 -43 16 -50 12 -15 -14 -29 -90
-47 -42 -10 -59 -10 -60 -2 0 6 -4 37 -8 68 l-7 56 29 5 c16 2 48 5 71 6 41 1
42 0 49 -36z m-136 -171 c0 -4 -18 -6 -40 -4 -22 2 -40 6 -40 8 0 2 18 4 40 4
22 0 40 -3 40 -8z m480 -23 c99 -7 178 -14 176 -17 -5 -4 -372 15 -546 28
-100 8 -97 9 42 5 81 -3 228 -10 328 -16z m-1273 -335 c-3 -3 -12 -4 -19 -1
-8 3 -5 6 6 6 11 1 17 -2 13 -5z m1811 1 c-12 -12 -121 -75 -124 -72 -2 2 24
20 58 40 59 35 79 44 66 32z m-1745 -12 c-7 -2 -21 -2 -30 0 -10 3 -4 5 12 5
17 0 24 -2 18 -5z m54 -9 c-3 -3 -12 -4 -19 -1 -8 3 -5 6 6 6 11 1 17 -2 13
-5z m76 -11 c-7 -2 -19 -2 -25 0 -7 3 -2 5 12 5 14 0 19 -2 13 -5z m50 -10
c-7 -2 -19 -2 -25 0 -7 3 -2 5 12 5 14 0 19 -2 13 -5z m44 -9 c-3 -3 -12 -4
-19 -1 -8 3 -5 6 6 6 11 1 17 -2 13 -5z m1378 -34 c-3 -5 -16 -15 -28 -21 -19
-9 -19 -8 3 10 28 23 34 26 25 11z m-1118 -46 c-3 -3 -12 -4 -19 -1 -8 3 -5 6
6 6 11 1 17 -2 13 -5z m50 -10 c-3 -3 -12 -4 -19 -1 -8 3 -5 6 6 6 11 1 17 -2
13 -5z m193 -29 c80 -14 149 -25 154 -25 5 0 7 -2 4 -5 -5 -5 -306 40 -333 50
-30 11 47 2 175 -20z m333 -62 c-7 -2 -19 -2 -25 0 -7 3 -2 5 12 5 14 0 19 -2
13 -5z m132 -17 c33 -8 51 -14 40 -15 -11 0 -47 6 -80 13 -33 8 -51 14 -40 15
11 0 47 -6 80 -13z m590 -6 c-3 -5 -12 -10 -18 -10 -7 0 -6 4 3 10 19 12 23
12 15 0z m-1735 -90 l-7 -75 -2 62 c-1 53 6 100 14 91 1 -2 -1 -37 -5 -78z
m1253 73 c-7 -2 -21 -2 -30 0 -10 3 -4 5 12 5 17 0 24 -2 18 -5z m-36 -50 c-3
-10 -5 -4 -5 12 0 17 2 24 5 18 2 -7 2 -21 0 -30z m-999 -25 c-5 -29 -12 -55
-15 -58 -6 -6 7 91 14 103 10 16 10 4 1 -45z m1109 20 c-3 -7 -5 -2 -5 12 0
14 2 19 5 13 2 -7 2 -19 0 -25z m-1110 -140 c-3 -8 -6 -5 -6 6 -1 11 2 17 5
13 3 -3 4 -12 1 -19z m620 -70 c-2 -18 -4 -4 -4 32 0 36 2 50 4 33 2 -18 2
-48 0 -65z m216 12 c-3 -11 -7 -20 -9 -20 -2 0 -4 9 -4 20 0 11 4 20 9 20 5 0
7 -9 4 -20z"/>
<path d="M297 1653 c-15 -14 -7 -53 11 -53 13 0 14 2 3 9 -8 5 -11 16 -6 30 6
21 4 26 -8 14z"/>
<path d="M290 1547 c0 -10 8 -17 18 -17 9 0 13 4 7 8 -5 4 -13 11 -17 16 -5 5
-8 2 -8 -7z"/>
<path d="M283 1485 c-3 -9 -3 -18 -1 -21 3 -3 8 4 11 16 6 23 -1 27 -10 5z"/>
<path d="M272 1379 c-1 -20 -4 -58 -7 -85 -5 -45 -4 -47 6 -16 5 19 8 57 6 85
-2 37 -4 42 -5 16z"/>
<path d="M262 1145 c0 -47 3 -85 7 -85 4 0 8 38 10 85 1 47 -2 85 -7 85 -5 0
-9 -38 -10 -85z"/>
<path d="M2465 972 c-44 -47 -71 -80 -60 -74 28 14 157 150 148 154 -4 2 -44
-34 -88 -80z"/>
<path d="M270 1040 c0 -5 5 -10 11 -10 5 0 7 5 4 10 -3 6 -8 10 -11 10 -2 0
-4 -4 -4 -10z"/>
<path d="M2273 703 c-13 -2 -23 -10 -23 -16 0 -7 -4 -6 -10 3 -8 13 -10 12
-10 -3 0 -10 -6 -20 -14 -23 -8 -3 -17 -20 -20 -39 -4 -20 -22 -48 -43 -69
-41 -39 -44 -39 70 -1 50 16 62 25 84 62 17 30 23 51 19 68 -6 25 -10 26 -53
18z"/>
<path d="M2211 684 c0 -11 3 -14 6 -6 3 7 2 16 -1 19 -3 4 -6 -2 -5 -13z"/>
<path d="M2037 668 c-6 -4 -21 -8 -32 -8 -11 0 -26 -9 -33 -20 -15 -24 -6 -25
41 -5 20 8 51 15 69 15 18 0 41 7 52 15 16 12 13 14 -33 12 -28 0 -57 -4 -64
-9z"/>
<path d="M1610 633 c0 -7 5 -13 10 -13 17 0 33 -52 31 -102 -2 -38 1 -48 13
-48 11 0 16 9 16 30 0 17 -5 30 -10 30 -6 0 -8 10 -5 23 4 15 -3 32 -24 57
-17 19 -30 29 -31 23z"/>
<path d="M2391 620 c-30 -11 -55 -21 -57 -23 -5 -4 182 -97 195 -97 6 0 11 -4
11 -9 0 -13 36 -9 83 9 38 15 45 24 25 36 -7 5 -8 3 -3 -7 5 -8 -2 -5 -15 6
-16 14 -22 16 -18 5 4 -12 -5 -15 -46 -17 -81 -4 -94 5 -45 30 22 12 41 27 42
32 0 12 -81 55 -103 55 -8 -1 -39 -9 -69 -20z"/>
</g>
</svg>
